<svg width="15" height="13" viewBox="0 0 17 15" fill="#1d7ad4" xmlns="http://www.w3.org/2000/svg">
    <path fill-rule="evenodd" clip-rule="evenodd"
          d="M7.14793 13.6805H8.85207C8.89941 13.6805 8.89941 13.6805 8.89941 13.6805C8.94675 13.6805 8.94675 13.6805 8.94675 13.6331C9.04142 13.5858 9.08876 13.5385 9.23077 13.3964C9.27811 13.3491 9.27811 13.3491 9.32544 13.3018L15.8107 7.43195C15.858 7.38462 15.858 7.38462 15.9053 7.33728C15.9527 7.28994 15.9527 7.28994 15.9527 7.2426C15.9527 7.19527 16 7.14793 16 7.10059C16 7.05325 16 7.00592 16 6.95858V2.13018C16 2.0355 16 1.98817 15.9527 1.94083C15.9527 1.89349 15.9053 1.79882 15.9053 1.75148C15.858 1.70414 15.8107 1.6568 15.7633 1.60947C15.716 1.56213 15.6686 1.51479 15.574 1.51479L12.0237 0.0473373C11.9763 0.0473373 11.929 0 11.8817 0C11.8343 0 11.787 0 11.7396 0C11.6923 0 11.645 0 11.5976 0.0473373C11.5503 0.0946746 11.503 0.0946746 11.4556 0.0946746L8.09468 1.98817C8.04734 2.0355 8.04734 2.0355 8 2.0355C7.95266 2.0355 7.95266 2.0355 7.90533 2.0355C7.85799 2.0355 7.85799 2.0355 7.81065 1.98817C7.76331 1.94083 7.76331 1.94083 7.71598 1.94083L4.35503 0.0473373C4.49704 0.0473373 4.4497 0.0473373 4.40237 0.0473373C4.35503 0 4.30769 0 4.26035 0C4.21302 0 4.16568 0 4.11834 0C4.07101 0 4.02367 0.0473373 3.97633 0.0473373L0.426035 1.51479C0.331361 1.56213 0.284024 1.60947 0.236686 1.6568C0.189349 1.6568 0.142012 1.70414 0.0946746 1.75148C0.0473373 1.79882 0.0473373 1.84615 0.0473373 1.94083C0 1.98817 0 2.0355 0 2.13018V6.95858C0 7.00592 0 7.05325 0 7.10059C0 7.14793 0 7.19527 0.0473373 7.2426C0.0473373 7.28994 0.0946746 7.28994 0.0946746 7.33728C0.142012 7.38462 0.142012 7.38462 0.189349 7.43195L6.67456 13.3491C6.72189 13.3965 6.72189 13.3965 6.76923 13.4438C6.81657 13.5385 6.91124 13.5858 6.95858 13.5858C7.00592 13.6331 7.05325 13.6331 7.10059 13.6331C7.14793 13.6805 7.14793 13.6805 7.14793 13.6805ZM7.95266 6.24852C7.90533 6.20118 7.85799 6.15385 7.85799 6.05917C7.85799 5.91716 7.95266 5.82249 8.09468 5.82249C8.23669 5.82249 8.33136 5.91716 8.33136 6.05917C8.33136 6.15385 8.28402 6.20118 8.23669 6.24852L8.33136 6.86391H7.90533L7.95266 6.24852ZM7.2426 3.78698C7.28994 3.88166 7.33728 3.92899 7.33728 4.02367C7.38462 4.11834 7.38462 4.21302 7.38462 4.30769C7.38462 4.40237 7.43195 4.49704 7.43195 4.59172C7.47929 4.87574 7.38462 5.15976 7.28994 5.34911C7.14793 5.5858 7.00592 5.77515 6.81657 5.86982C6.76923 5.91716 6.67456 5.91716 6.57988 5.9645C6.53254 6.01183 6.43787 6.01183 6.3432 6.01183C6.24852 6.01183 6.20118 6.01183 6.10651 6.01183C6.01183 6.01183 5.9645 6.01183 5.86982 5.9645C5.68047 5.91716 5.53846 5.82248 5.44379 5.63314C5.34911 5.49112 5.25444 5.34911 5.25444 5.15976C5.25444 5.01775 5.25444 4.92308 5.30177 4.87574C5.34911 4.78106 5.39645 4.73373 5.44379 4.68639C5.49112 4.68639 5.49112 4.63905 5.49112 4.63905C5.53846 4.63905 5.53846 4.63905 5.5858 4.63905C5.63314 4.63905 5.63314 4.63905 5.63314 4.63905C5.68047 4.63905 5.68047 4.63905 5.68047 4.68639C5.72781 4.73373 5.82249 4.73373 5.82249 4.8284C5.86982 4.87574 5.86982 4.92308 5.86982 5.01775C5.86982 5.11243 5.86982 5.2071 5.91716 5.25444C5.9645 5.30178 5.9645 5.39645 6.05917 5.39645C6.10651 5.39645 6.10651 5.44379 6.15385 5.44379C6.20118 5.44379 6.20118 5.44379 6.24852 5.44379C6.29586 5.44379 6.29586 5.44379 6.3432 5.44379C6.39053 5.44379 6.39053 5.39645 6.43787 5.39645C6.53254 5.34911 6.57988 5.25444 6.67456 5.15976C6.72189 5.06509 6.76923 4.92308 6.81657 4.78107C6.81657 4.73373 6.81657 4.73373 6.81657 4.73373C6.81657 4.68639 6.81657 4.68639 6.81657 4.63905C6.81657 4.49704 6.76923 4.40237 6.72189 4.26035C6.67456 4.11834 6.57988 4.02367 6.43787 3.92899C6.3432 3.88166 6.24852 3.78698 6.15385 3.78698C6.01183 3.73965 5.91716 3.69231 5.82249 3.69231C5.77515 3.69231 5.77515 3.69231 5.72781 3.69231H5.68047C5.53846 3.69231 5.34911 3.73965 5.2071 3.78698C5.06509 3.83432 4.87574 3.92899 4.78107 4.07101C4.68639 4.11834 4.54438 4.21302 4.49704 4.35503C4.4497 4.49704 4.35503 4.59172 4.35503 4.78107C4.30769 4.97041 4.35503 5.15976 4.40237 5.25444C4.4497 5.39645 4.49704 5.49112 4.54438 5.5858C4.63905 5.63314 4.63905 5.68047 4.63905 5.68047C4.63905 5.72781 4.59172 5.72781 4.4497 5.72781C4.35503 5.72781 4.21302 5.72781 3.97633 5.68047C3.83432 5.68047 3.73965 5.68047 3.59763 5.72781C3.45562 5.77515 3.36095 5.82248 3.26627 5.86982C3.1716 5.91716 3.07692 6.01183 3.02959 6.10651C2.98225 6.15385 2.88757 6.24852 2.84024 6.34319C2.88757 6.43787 2.98225 6.57988 3.07692 6.67456C3.1716 6.76923 3.26627 6.86391 3.36095 6.91124C3.45562 6.95858 3.5503 7.00592 3.69231 7.05325C3.83432 7.10059 3.92899 7.10059 4.07101 7.10059C4.30769 7.05325 4.4497 7.05325 4.54438 7.05325C4.68639 7.05325 4.73373 7.05325 4.73373 7.10059C4.73373 7.10059 4.73373 7.14793 4.68639 7.14793L4.63905 7.19527C4.54438 7.33728 4.35503 7.57396 4.40237 7.95266C4.40237 8.09467 4.4497 8.23669 4.54438 8.3787C4.63905 8.52071 4.73373 8.61538 4.87574 8.71006C5.01775 8.85207 5.15976 8.89941 5.30177 8.99408C5.44379 9.08876 5.63314 9.08876 5.77515 9.08876H5.82249C5.86982 9.08876 5.86982 9.08876 5.91716 9.08876C6.01183 9.08876 6.15385 9.04142 6.24852 8.99408C6.3432 8.94675 6.48521 8.89941 6.57988 8.85207C6.67456 8.7574 6.76923 8.66272 6.86391 8.52071C6.91124 8.42604 6.95858 8.28402 6.95858 8.18935C6.95858 8.14201 6.95858 8.14201 6.95858 8.09468C6.95858 8.04734 6.95858 8.04734 6.95858 8C6.91124 7.85799 6.91124 7.71598 6.81657 7.6213C6.76923 7.52663 6.67456 7.43195 6.57988 7.38462C6.53254 7.38462 6.53254 7.33728 6.48521 7.33728C6.43787 7.33728 6.43787 7.33728 6.39053 7.33728C6.3432 7.33728 6.3432 7.33728 6.29586 7.33728C6.24852 7.33728 6.24852 7.33728 6.20118 7.38462C6.15385 7.43195 6.10651 7.47929 6.05917 7.52663C6.01183 7.57396 6.01183 7.66864 6.01183 7.76331C6.01183 7.81065 5.9645 7.90532 5.9645 7.95266C5.91716 8 5.86982 8.04734 5.82249 8.09468H5.77515C5.72781 8.09468 5.72781 8.09468 5.72781 8.09468C5.68047 8.09468 5.68047 8.09468 5.63314 8.09468C5.5858 8.09468 5.5858 8.09468 5.5858 8.04734C5.53846 8 5.44379 7.95266 5.44379 7.85799C5.39645 7.76331 5.39645 7.66864 5.39645 7.57396C5.39645 7.38462 5.49112 7.19527 5.5858 7.10059C5.72781 6.95858 5.86982 6.86391 6.05917 6.76923C6.10651 6.76923 6.20118 6.72189 6.29586 6.72189C6.39053 6.72189 6.43787 6.72189 6.53254 6.72189C6.62722 6.72189 6.72189 6.76923 6.76923 6.76923C6.86391 6.81657 6.91124 6.81657 7.00592 6.86391C7.2426 6.95858 7.43195 7.14793 7.52663 7.33728C7.6213 7.52663 7.66864 7.81065 7.66864 8.09468C7.66864 8.14201 7.66864 8.18935 7.6213 8.23669C7.6213 8.28402 7.6213 8.33136 7.57396 8.3787C7.57396 8.42604 7.52663 8.47337 7.52663 8.52071C7.52663 8.56805 7.47929 8.61538 7.47929 8.66272C7.33728 8.89941 7.19527 9.08876 7.05325 9.23077C6.91124 9.37278 6.76923 9.46746 6.67456 9.56213C6.62722 9.60947 6.62722 9.60947 6.62722 9.60947C6.62722 9.60947 6.62722 9.60947 6.67456 9.60947C6.72189 9.6568 6.81657 9.75148 6.86391 9.79882C6.91124 9.84615 7.00592 9.94083 7.05325 10.0355C7.10059 10.1302 7.19527 10.2249 7.19527 10.3195C7.2426 10.4142 7.28994 10.5562 7.33728 10.6509C7.38462 10.7456 7.43195 10.8402 7.43195 10.9349C7.47929 11.0296 7.47929 11.1243 7.52663 11.2189C7.57396 11.3136 7.57396 11.4083 7.57396 11.503C7.57396 11.5976 7.57396 11.6923 7.57396 11.8343C7.57396 11.8817 7.57396 11.8817 7.57396 11.929C7.57396 11.9763 7.57396 11.9763 7.52663 12.0237C7.47929 12.071 7.47929 12.071 7.47929 12.0237L1.79882 6.76923C1.75148 6.72189 1.70414 6.67456 1.70414 6.62722C1.46746 6.72189 1.46746 6.67456 1.42012 6.62722C1.42012 6.62722 1.42012 6.57988 1.42012 6.53254C1.42012 6.48521 1.42012 6.43787 1.42012 6.39053V2.93491C1.42012 2.88757 1.42012 2.84024 1.42012 2.7929C1.42012 2.74556 1.46746 2.74556 1.46746 2.69822C1.51479 2.65089 1.51479 2.65089 1.56213 2.60355C1.60947 2.55621 1.60947 2.55621 1.6568 2.55621L3.83432 1.70414C3.88166 1.6568 3.97633 1.6568 4.02367 1.6568C4.07101 1.6568 4.11834 1.6568 4.16568 1.6568C4.21302 1.6568 4.26036 1.6568 4.30769 1.70414C4.35503 1.70414 4.40237 1.75148 4.4497 1.75148L5.2071 2.22485C5.25444 2.22485 5.30178 2.27219 5.34911 2.27219C5.39645 2.31953 5.44379 2.31953 5.49112 2.36686C5.77515 2.50888 6.05917 2.69822 6.3432 2.88757C6.62722 3.07692 6.86391 3.31361 7.05325 3.59763C7.14793 3.64497 7.19527 3.69231 7.2426 3.78698ZM8.85207 3.78698C8.89941 3.69231 8.94675 3.64497 8.99408 3.5503C9.18343 3.26627 9.42012 3.07692 9.70414 2.84024C9.98817 2.60355 10.2722 2.46154 10.5562 2.31953C10.6035 2.27219 10.6509 2.27219 10.6982 2.22485C10.7456 2.17751 10.7929 2.17751 10.8402 2.17751L11.5976 1.70414C11.645 1.6568 11.6923 1.6568 11.7396 1.6568C11.787 1.60947 11.8343 1.60947 11.8817 1.60947C11.929 1.60947 11.9763 1.60947 12.0237 1.60947C12.071 1.60947 12.1183 1.6568 12.213 1.6568L14.3905 2.50888C14.4379 2.50888 14.4379 2.55621 14.4852 2.55621C14.5325 2.60355 14.5325 2.60355 14.5799 2.65089C14.6272 2.74556 14.6746 2.74556 14.6746 2.7929C14.6746 2.84024 14.6746 2.84024 14.6746 2.88757V6.34319C14.6746 6.39053 14.6746 6.48521 14.6746 6.48521C14.6746 6.53254 14.6746 6.57988 14.6272 6.62722C14.6272 6.67456 14.5799 6.72189 14.5799 6.72189C14.5325 6.76923 14.5325 6.81657 14.4852 6.86391L8.80473 12.1183C8.80473 12.1183 8.7574 12.1183 8.7574 12.071C8.7574 12.0237 8.7574 12.0237 8.71006 11.9763C8.71006 11.929 8.71006 11.929 8.71006 11.8817C8.71006 11.787 8.71006 11.645 8.71006 11.5503C8.71006 11.4556 8.71006 11.3609 8.7574 11.2663C8.7574 11.1716 8.80473 11.0769 8.85207 10.9822C8.89941 10.8876 8.89941 10.7929 8.94675 10.6982C8.99408 10.6036 9.04142 10.4615 9.08876 10.3669C9.1361 10.2722 9.18343 10.1775 9.23077 10.0828C9.27811 9.98817 9.32544 9.94083 9.42012 9.84615C9.46746 9.79882 9.56213 9.70414 9.60947 9.65681L9.56213 9.60947C9.37278 9.46745 8.99408 9.18343 8.71006 8.71006C8.66272 8.66272 8.66272 8.61539 8.66272 8.56805C8.66272 8.52071 8.61539 8.47337 8.61539 8.42603C8.61539 8.3787 8.56805 8.33136 8.56805 8.28402C8.56805 8.23669 8.56805 8.18935 8.52071 8.14201C8.52071 7.85799 8.56805 7.57396 8.66272 7.38462C8.80473 7.14793 8.94675 7.00592 9.18343 6.91124C9.27811 6.86391 9.32544 6.86391 9.42012 6.81657C9.51479 6.81657 9.60947 6.76923 9.65681 6.76923C9.70414 6.76923 9.79882 6.76923 9.89349 6.76923C9.98817 6.76923 10.0355 6.81657 10.1302 6.81657C10.3195 6.86391 10.5089 6.95858 10.6035 7.14793C10.6982 7.28994 10.7929 7.43195 10.7929 7.6213C10.7929 7.71598 10.7929 7.81065 10.7456 7.90533C10.6982 8 10.6509 8.04734 10.6035 8.09468C10.6035 8.09468 10.5562 8.09468 10.5562 8.14201C10.5089 8.14201 10.5089 8.14201 10.5089 8.14201C10.4615 8.14201 10.4615 8.14201 10.4142 8.14201C10.3669 8.14201 10.3669 8.14201 10.3669 8.14201C10.3195 8.09468 10.2722 8.09467 10.2249 8C10.1775 7.90533 10.1775 7.85799 10.1775 7.81065C10.1775 7.71598 10.1302 7.6213 10.1302 7.57396C10.0828 7.52663 10.0355 7.43195 9.98817 7.43195C9.94083 7.38462 9.94083 7.38462 9.89349 7.38462C9.84615 7.38462 9.84615 7.38462 9.79882 7.38462C9.75148 7.38462 9.75148 7.38462 9.70414 7.38462C9.65681 7.38462 9.65681 7.43195 9.60947 7.43195C9.51479 7.47929 9.46746 7.57397 9.37278 7.66864C9.32544 7.76331 9.27811 7.90533 9.23077 8.04734C9.23077 8.09468 9.23077 8.09468 9.23077 8.14201C9.23077 8.18935 9.23077 8.18935 9.23077 8.23669C9.23077 8.3787 9.27811 8.47337 9.32544 8.56805C9.37278 8.71006 9.46746 8.80473 9.60947 8.89941C9.70414 8.94674 9.79882 9.04142 9.89349 9.04142C10.0355 9.08876 10.1302 9.13609 10.2249 9.13609C10.2722 9.13609 10.2722 9.13609 10.3195 9.13609C10.3669 9.13609 10.3669 9.13609 10.3669 9.13609C10.5089 9.13609 10.6982 9.08876 10.8402 9.04142C10.9822 8.99408 11.1716 8.89941 11.2663 8.7574C11.4083 8.66272 11.503 8.52071 11.5976 8.42603C11.6923 8.28402 11.7396 8.14201 11.7396 8C11.787 7.81065 11.7396 7.66864 11.6923 7.52663C11.645 7.38462 11.5503 7.28994 11.503 7.2426C11.4556 7.19527 11.4556 7.14793 11.4556 7.14793C11.4556 7.10059 11.503 7.10059 11.645 7.10059C11.7396 7.10059 11.8817 7.10059 12.1183 7.14793C12.2604 7.14793 12.355 7.14793 12.4497 7.10059C12.5444 7.05325 12.6864 7.05325 12.7811 6.95858C12.8757 6.91124 12.9704 6.81657 13.0651 6.72189C13.1598 6.62722 13.2071 6.53254 13.3018 6.39053C13.2071 6.29586 13.1598 6.20118 13.0651 6.10651C12.9704 6.01183 12.8757 5.9645 12.7811 5.86982C12.6864 5.82248 12.5917 5.77515 12.497 5.72781C12.355 5.68047 12.2604 5.68047 12.1183 5.68047C11.8817 5.72781 11.7396 5.72781 11.645 5.72781C11.503 5.72781 11.4556 5.72781 11.4556 5.68047C11.4556 5.68047 11.503 5.63314 11.503 5.5858C11.5503 5.49112 11.645 5.39645 11.6923 5.25444C11.7396 5.11243 11.787 4.97041 11.7396 4.78107C11.7396 4.63905 11.6923 4.49704 11.5976 4.35503C11.5503 4.21302 11.4083 4.07101 11.2663 3.97633C11.1243 3.83432 10.9822 3.78698 10.8402 3.69231C10.6982 3.64497 10.5089 3.59763 10.3669 3.59763C10.3195 3.59763 10.3195 3.59763 10.3195 3.59763C10.2722 3.59763 10.2722 3.59763 10.2249 3.59763C10.1302 3.59763 9.98817 3.64497 9.89349 3.69231C9.79882 3.73965 9.70414 3.78698 9.60947 3.83432C9.51479 3.92899 9.37278 4.02367 9.32544 4.16568C9.27811 4.26035 9.23077 4.40237 9.23077 4.54438C9.23077 4.59172 9.23077 4.59172 9.23077 4.63905V4.68639C9.27811 4.8284 9.27811 4.97041 9.37278 5.06509C9.42012 5.15976 9.51479 5.25444 9.60947 5.30177C9.65681 5.34911 9.65681 5.34911 9.70414 5.34911C9.75148 5.34911 9.75148 5.34911 9.79882 5.34911C9.84615 5.34911 9.84615 5.34911 9.89349 5.34911C9.94083 5.34911 9.94083 5.30177 9.98817 5.30177C10.0355 5.25444 10.0828 5.2071 10.1302 5.15976C10.1775 5.11243 10.1775 5.01775 10.1775 4.92308C10.1775 4.8284 10.1775 4.78106 10.2249 4.73373C10.2722 4.68639 10.3195 4.63905 10.3669 4.59172C10.3669 4.59172 10.4142 4.59172 10.4142 4.54438C10.4615 4.54438 10.4615 4.54438 10.5089 4.54438H10.5562C10.6035 4.54438 10.6035 4.59172 10.6035 4.59172C10.6509 4.63905 10.7456 4.68639 10.7456 4.78107C10.7929 4.8284 10.7929 4.92308 10.7929 5.06509C10.7929 5.25444 10.6982 5.44379 10.6035 5.53846C10.5089 5.68047 10.3195 5.77515 10.1775 5.86982C10.1302 5.91716 10.0355 5.91716 9.94083 5.91716C9.89349 5.91716 9.79882 5.91716 9.70414 5.91716C9.60947 5.91716 9.56213 5.91716 9.46746 5.86982C9.37278 5.86982 9.32544 5.82248 9.23077 5.77515C9.04142 5.68047 8.85207 5.49112 8.7574 5.25444C8.66272 5.06509 8.61539 4.78106 8.61539 4.49704C8.61539 4.40237 8.61538 4.30769 8.66272 4.21302C8.71006 4.11834 8.71006 4.02367 8.71006 3.92899C8.80473 3.92899 8.80473 3.88166 8.85207 3.78698Z"
          fill="#1d7ad4"/>
</svg>
